<svg width="12" height="20" viewBox="0 0 12 20" fill="none" xmlns="http://www.w3.org/2000/svg">
<path d="M5.125 20V0H6.40625V20H5.125ZM9.4375 6C9.34375 5.20833 8.96354 4.59375 8.29687 4.15625C7.63021 3.71875 6.8125 3.5 5.84375 3.5C5.13542 3.5 4.51562 3.61458 3.98437 3.84375C3.45833 4.07292 3.04687 4.38802 2.75 4.78906C2.45833 5.1901 2.3125 5.64583 2.3125 6.15625C2.3125 6.58333 2.41406 6.95052 2.61719 7.25781C2.82552 7.5599 3.09115 7.8125 3.41406 8.01562C3.73698 8.21354 4.07552 8.3776 4.42969 8.50781C4.78385 8.63281 5.10937 8.73438 5.40625 8.8125L7.03125 9.25C7.44792 9.35938 7.91146 9.51042 8.42187 9.70312C8.9375 9.89583 9.42969 10.1589 9.89844 10.4922C10.3724 10.8203 10.763 11.2422 11.0703 11.7578C11.3776 12.2734 11.5312 12.9062 11.5312 13.6562C11.5312 14.5208 11.3047 15.3021 10.8516 16C10.4036 16.6979 9.74739 17.2526 8.88281 17.6641C8.02344 18.0755 6.97917 18.2812 5.75 18.2812C4.60417 18.2812 3.61198 18.0964 2.77344 17.7266C1.9401 17.3568 1.28385 16.8411 0.804687 16.1797C0.330729 15.5182 0.0625 14.75 0 13.875H2C2.05208 14.4792 2.25521 14.9792 2.60937 15.375C2.96875 15.7656 3.42187 16.0573 3.96875 16.25C4.52083 16.4375 5.11458 16.5312 5.75 16.5312C6.48958 16.5312 7.15364 16.4115 7.74219 16.1719C8.33073 15.9271 8.79687 15.5885 9.14062 15.1562C9.48437 14.7188 9.65625 14.2083 9.65625 13.625C9.65625 13.0938 9.50781 12.6615 9.21094 12.3281C8.91406 11.9948 8.52344 11.724 8.03906 11.5156C7.55469 11.3073 7.03125 11.125 6.46875 10.9688L4.5 10.4062C3.25 10.0469 2.26042 9.53385 1.53125 8.86719C0.802083 8.20052 0.4375 7.32812 0.4375 6.25C0.4375 5.35417 0.679687 4.57292 1.16406 3.90625C1.65365 3.23438 2.3099 2.71354 3.13281 2.34375C3.96094 1.96875 4.88542 1.78125 5.90625 1.78125C6.9375 1.78125 7.85417 1.96615 8.65625 2.33594C9.45833 2.70052 10.0937 3.20052 10.5625 3.83594C11.0365 4.47135 11.2865 5.19271 11.3125 6H9.4375Z" fill="#999999"/>
</svg>
